# xmcd CD database file
#
# Track frame offsets:
#	150
#	11622
#	26640
#	39740
#	57230
#	72555
#	85032
#	99192
#	112897
#	126865
#	139995
#	152460
#	165245
#	177525
#
# Disc length: 2534 seconds
#
# Revision: 2
# Processed by: cddbd v1.5.2PL0 Copyright (c) Steve Scherf et al.
# Submitted via: CDex 1.51
#
DISCID=b009e40e
DTITLE=Jimmy Rogers - Chicago Bound
DYEAR=1990
DGENRE=Blues
TTITLE0=You're The One
TTITLE1=Money, Marbles and Chalk
TTITLE2=Luedella
TTITLE3=Act Like You Love Me
TTITLE4=Back Door Friend
TTITLE5=Last Time
TTITLE6=I Used To Have A Woman
TTITLE7=Sloppy Drunk
TTITLE8=Blues Leave Me Alone
TTITLE9=Out On The Road
TTITLE10=Goin' Away Baby
TTITLE11=That's All Right
TTITLE12=Chicago Bound
TTITLE13=Walking By Myself
EXTD=YEAR: 1990
EXTT0=
EXTT1=
EXTT2=
EXTT3=
EXTT4=
EXTT5=
EXTT6=
EXTT7=
EXTT8=
EXTT9=
EXTT10=
EXTT11=
EXTT12=
EXTT13=
PLAYORDER=
